<?xml version="1.0" encoding="UTF-8"?>
<svg id="Capa_2" data-name="Capa 2" xmlns="http://www.w3.org/2000/svg" viewBox="0 0 395.02 156.76">
  <defs>
    <style>
      .cls-1, .cls-2 {
        stroke-miterlimit: 6;
      }

      .cls-1, .cls-2, .cls-3, .cls-4, .cls-5 {
        fill: none;
      }

      .cls-1, .cls-2, .cls-4, .cls-5 {
        stroke-linecap: round;
        stroke-width: 14px;
      }

      .cls-1, .cls-3, .cls-4 {
        stroke: #a4b9cb;
      }

      .cls-2, .cls-5 {
        stroke: #fff;
      }

      .cls-3, .cls-4, .cls-5 {
        stroke-miterlimit: 10;
      }

      .cls-6 {
        fill: #56c3eb;
      }

      .cls-7 {
        fill: #3db7e4;
      }

      .cls-8 {
        fill: #1c62a3;
      }

      .cls-9 {
        fill: #fff;
      }

      .cls-10 {
        fill: #336bb3;
      }

      .cls-11 {
        fill: #5bc1d2;
      }

      .cls-12 {
        fill: #4189c8;
      }

      .cls-13 {
        fill: #91d1db;
      }
    </style>
  </defs>
  <g id="Capa_1-2" data-name="Capa 1">
    <g id="ISOLOGO">
      <path class="cls-4" d="M134.09,120.26c19.15,8.24,39.38-3.91,44.38-22.45,6.02-22.32-11.36-45.32-28.7-47.99-2.46-.38-4.82-.33-7.02,0"/>
      <path class="cls-2" d="M134.09,84.65c12.54-25.43,8.53-53.17-7.89-67.4-14.31-12.41-33.01-10.15-34.14-9.99"/>
      <path class="cls-1" d="M132.06,84.65c12.54-25.43,8.53-53.17-7.89-67.4-14.31-12.41-33.01-10.15-34.14-9.99-16.44,2.24-30.6,13.98-37.02,30.59-.37,1.77-.74,3.55-1.11,5.32"/>
      <path class="cls-5" d="M59.97,45.82c-57.6-.02-52.52,43.89-52.44,44.34,0,0,0,0,0,0,0,0,1.77,19.05,15.26,25.19,10.87,8.95,49.7,10.28,75.64-8.56"/>
      <path class="cls-4" d="M59.79,47.83c-57.6-.02-52.52,43.89-52.44,44.34,0,0,0,0,0,0,0,0,1.77,19.05,15.26,25.19,10.87,8.95,49.7,10.28,75.64-8.56"/>
      <g id="NODOS">
        <path class="cls-3" d="M51.65,77.53c1.39,13.23,4.95,31.63,14.46,50.18,2.57,5.02,5.28,9.45,7.96,13.35"/>
        <path class="cls-3" d="M76.29,139.76c-1.37-19.94.12-41.44,6.69-63.25.46-1.53.94-3.04,1.44-4.53"/>
        <path class="cls-3" d="M80.19,58.82c-2.44-2.99-7.1-7.82-13.82-9.74-2.45-.7-4.69-.88-6.58-.82"/>
        <path class="cls-3" d="M111.55,134.59c-5.88,3.63-12.67,6.98-20.42,9.52-1.11.36-2.2.7-3.29,1.01"/>
        <g>
          <circle class="cls-9" cx="14.71" cy="106.4" r="14.71" transform="translate(-65.36 34.81) rotate(-40.33)"/>
          <circle class="cls-8" cx="14.62" cy="106.26" r="12.43" transform="translate(-65.29 34.71) rotate(-40.33)"/>
        </g>
        <circle class="cls-10" cx="79.52" cy="147.96" r="8.8"/>
        <circle class="cls-9" cx="131.59" cy="88.24" r="11.91" transform="translate(-25.83 106.13) rotate(-40.33)"/>
        <circle class="cls-9" cx="134" cy="27.01" r="13.35" transform="translate(20.15 102.66) rotate(-45)"/>
        <g>
          <circle class="cls-9" cx="176.27" cy="74.25" r="11.91" transform="translate(-6.16 131.72) rotate(-40.33)"/>
          <circle class="cls-6" cx="176.27" cy="74.25" r="9.53"/>
        </g>
        <path class="cls-3" d="M167.62,78.23c-3.08,1.58-8.68,4.25-16.31,6.79-3.97,1.32-7.43,2.25-10.09,2.89"/>
        <path class="cls-3" d="M92.06,60.28c15.45-.85,39.22-.72,63.52,5.83,4.65,1.25,8.88,2.63,12.71,4.04"/>
        <path class="cls-3" d="M89.44,56.64c6.06-8.17,17.31-20.32,34.25-24.13,1.82-.41,3.62-.7,5.37-.89"/>
        <path class="cls-3" d="M120.93,123.07c2.71-8.31,5.41-16.63,8.12-24.94"/>
        <path class="cls-3" d="M24.14,98.27c4.98-3.79,10.75-9.09,15.64-16.2,1.63-2.38,2.98-4.68,4.1-6.87"/>
        <path class="cls-3" d="M103.76,106.03c5.92-2.4,12.8-6.16,19.23-12.2,1.14-1.07,2.2-2.15,3.18-3.23"/>
        <circle class="cls-8" cx="133.86" cy="27.12" r="11.44"/>
        <circle class="cls-11" cx="85.74" cy="63.77" r="8.66"/>
        <circle class="cls-12" cx="118.97" cy="130.85" r="8.31"/>
        <circle class="cls-13" cx="50.08" cy="68.53" r="9.7" transform="translate(-31.47 45) rotate(-37.75)"/>
        <circle class="cls-7" cx="131.31" cy="88.25" r="10.01"/>
      </g>
    </g>
    <g id="LA_NUBE_POLO_TECNOLOGICO" data-name="LA NUBE POLO TECNOLOGICO">
      <g>
        <path class="cls-8" d="M272.27,84.08v-38.84h4.81l19.75,29.96h-2.38v-29.96h5.76v38.84h-4.81l-19.7-29.96h2.38v29.96h-5.8Z"/>
        <path class="cls-8" d="M317.43,84.46c-2.23,0-4.2-.47-5.9-1.42s-3.04-2.39-4.01-4.33c-.97-1.94-1.45-4.39-1.45-7.35v-16.92h6.19v16.04c0,2.63.54,4.6,1.62,5.91,1.08,1.31,2.59,1.97,4.52,1.97,1.44,0,2.7-.33,3.79-1,1.08-.67,1.92-1.67,2.51-3,.59-1.33.88-2.98.88-4.94v-14.98h6.14v29.63h-5.85v-8.05l1.03,2.5c-.88,1.89-2.18,3.35-3.88,4.38-1.7,1.04-3.57,1.55-5.6,1.55Z"/>
        <path class="cls-8" d="M337.26,84.08v-41.17h6.1v18.42l-.49,7.88.25,7.88v6.99h-5.85ZM351.76,84.46c-2.2,0-4.18-.55-5.95-1.64-1.77-1.09-3.14-2.77-4.11-5.02-.97-2.26-1.45-5.11-1.45-8.55s.51-6.33,1.52-8.57c1.02-2.24,2.39-3.9,4.13-4.99,1.74-1.09,3.69-1.64,5.85-1.64,2.56,0,4.83.63,6.83,1.89,2,1.26,3.58,3.03,4.74,5.33,1.16,2.29,1.75,4.96,1.75,7.99s-.58,5.74-1.75,8.02c-1.16,2.27-2.75,4.04-4.74,5.3-2,1.26-4.28,1.89-6.83,1.89ZM351.02,78.58c1.51,0,2.84-.38,4.01-1.14,1.16-.76,2.09-1.85,2.78-3.27.69-1.42,1.03-3.06,1.03-4.91s-.34-3.52-1.03-4.91c-.69-1.39-1.61-2.46-2.78-3.22-1.16-.76-2.5-1.14-4.01-1.14s-2.75.38-3.93,1.14-2.11,1.83-2.8,3.22c-.69,1.39-1.03,3.02-1.03,4.91s.34,3.49,1.03,4.91c.69,1.42,1.62,2.52,2.8,3.27,1.18.76,2.49,1.14,3.93,1.14Z"/>
        <path class="cls-8" d="M382.68,84.46c-2.92,0-5.46-.66-7.64-1.97-2.18-1.31-3.87-3.11-5.06-5.38-1.2-2.27-1.79-4.89-1.79-7.85s.58-5.58,1.75-7.85c1.16-2.28,2.77-4.07,4.82-5.38,2.05-1.31,4.38-1.97,7-1.97s4.83.64,6.83,1.91c2,1.28,3.57,3.06,4.72,5.35,1.15,2.29,1.72,5.01,1.72,8.16,0,.26,0,.58-.02.97-.02.39-.04.73-.07,1.03h-21.88v-4.61h18.63l-2.46,1.44c.03-1.67-.27-3.15-.91-4.47-.64-1.31-1.52-2.33-2.63-3.05-1.12-.72-2.43-1.08-3.93-1.08s-2.79.36-3.96,1.08c-1.16.72-2.06,1.75-2.68,3.08-.62,1.33-.93,2.87-.93,4.61v1.11c0,1.78.35,3.35,1.06,4.72.7,1.37,1.71,2.43,3.02,3.19,1.31.76,2.83,1.14,4.57,1.14,1.47,0,2.8-.28,3.98-.83,1.18-.56,2.23-1.37,3.15-2.44l3.34,4.33c-1.21,1.55-2.71,2.74-4.5,3.55s-3.83,1.22-6.12,1.22Z"/>
      </g>
      <g>
        <path class="cls-8" d="M204.58,84.07v-38.84h6.39v32.74h17.99v6.1h-24.38Z"/>
        <path class="cls-8" d="M241.48,84.46c-1.97,0-3.69-.38-5.16-1.14-1.47-.76-2.61-1.81-3.42-3.16-.8-1.35-1.2-2.88-1.2-4.58s.35-3.16,1.06-4.5c.7-1.33,1.86-2.39,3.47-3.16,1.61-.78,3.74-1.17,6.39-1.17h7.62v4.61h-7.18c-2.07,0-3.47.38-4.2,1.14-.74.76-1.11,1.71-1.11,2.86,0,1.22.44,2.2,1.33,2.94.88.74,2.11,1.11,3.69,1.11s2.86-.39,4.05-1.17c1.2-.78,2.07-1.92,2.63-3.44l.98,4.16c-.59,1.74-1.64,3.09-3.15,4.05-1.51.96-3.44,1.44-5.8,1.44ZM249.74,84.07v-6.05l-.29-1.22v-10.49c0-2.03-.55-3.62-1.65-4.74-1.1-1.13-2.76-1.69-4.99-1.69-1.44,0-2.87.26-4.28.78-1.41.52-2.62,1.24-3.64,2.16l-2.41-5.05c1.44-1.22,3.13-2.14,5.06-2.77,1.93-.63,3.95-.94,6.05-.94,3.83,0,6.78,1.04,8.85,3.11,2.06,2.07,3.1,5.25,3.1,9.54v17.37h-5.8Z"/>
      </g>
      <g>
        <path class="cls-7" d="M204.72,109.28v-17.9h6.98c1.57,0,2.91.25,4.01.74,1.11.49,1.96,1.21,2.56,2.15s.89,2.05.89,3.35-.3,2.41-.89,3.34c-.6.93-1.45,1.65-2.56,2.15-1.11.5-2.45.75-4.01.75h-5.57l1.15-1.2v6.62h-2.56ZM207.27,102.91l-1.15-1.28h5.5c1.64,0,2.88-.35,3.72-1.05.84-.7,1.27-1.69,1.27-2.97s-.42-2.27-1.27-2.97c-.84-.7-2.08-1.05-3.72-1.05h-5.5l1.15-1.28v10.58Z"/>
        <path class="cls-7" d="M226.45,109.43c-1.35,0-2.55-.3-3.62-.89-1.07-.6-1.91-1.42-2.52-2.47s-.92-2.24-.92-3.57.31-2.54.92-3.57,1.45-1.84,2.51-2.44c1.06-.6,2.27-.9,3.63-.9s2.55.29,3.62.88c1.07.59,1.9,1.4,2.51,2.44.6,1.04.91,2.23.91,3.58s-.3,2.54-.91,3.58c-.61,1.04-1.44,1.86-2.51,2.45s-2.27.89-3.62.89ZM226.45,107.28c.87,0,1.65-.2,2.34-.59.69-.39,1.23-.95,1.62-1.67.39-.72.59-1.56.59-2.52s-.2-1.81-.59-2.52c-.39-.71-.93-1.26-1.62-1.65-.69-.39-1.47-.59-2.34-.59s-1.64.2-2.33.59c-.68.39-1.23.94-1.64,1.65-.41.71-.61,1.55-.61,2.52s.2,1.79.61,2.52c.41.72.95,1.28,1.64,1.67.68.39,1.46.59,2.33.59Z"/>
        <path class="cls-7" d="M235.01,109.28v-18.97h2.46v18.97h-2.46Z"/>
        <path class="cls-7" d="M246.08,109.43c-1.35,0-2.55-.3-3.62-.89-1.07-.6-1.91-1.42-2.52-2.47s-.92-2.24-.92-3.57.31-2.54.92-3.57,1.45-1.84,2.51-2.44c1.06-.6,2.27-.9,3.63-.9s2.55.29,3.62.88c1.07.59,1.9,1.4,2.51,2.44.6,1.04.91,2.23.91,3.58s-.3,2.54-.91,3.58c-.61,1.04-1.44,1.86-2.51,2.45s-2.27.89-3.62.89ZM246.08,107.28c.87,0,1.65-.2,2.34-.59.69-.39,1.23-.95,1.62-1.67.39-.72.59-1.56.59-2.52s-.2-1.81-.59-2.52c-.39-.71-.93-1.26-1.62-1.65-.69-.39-1.47-.59-2.34-.59s-1.64.2-2.33.59c-.68.39-1.23.94-1.64,1.65-.41.71-.61,1.55-.61,2.52s.2,1.79.61,2.52c.41.72.95,1.28,1.64,1.67.68.39,1.46.59,2.33.59Z"/>
        <path class="cls-7" d="M263.57,109.28v-15.67h-6.14v-2.22h14.8v2.22h-6.14v15.67h-2.53Z"/>
        <path class="cls-7" d="M277.42,109.43c-1.45,0-2.72-.3-3.82-.89s-1.95-1.41-2.56-2.45c-.61-1.04-.91-2.23-.91-3.58s.29-2.54.88-3.58,1.4-1.85,2.43-2.44c1.03-.59,2.19-.88,3.49-.88s2.47.29,3.48.87c1,.58,1.79,1.39,2.36,2.44.57,1.05.86,2.27.86,3.67,0,.1,0,.22-.01.36,0,.14-.02.26-.04.38h-11.53v-1.76h10.25l-1,.61c.02-.87-.16-1.64-.54-2.33s-.89-1.21-1.55-1.6c-.66-.38-1.42-.58-2.29-.58s-1.61.19-2.28.58c-.66.38-1.18.92-1.56,1.61s-.56,1.48-.56,2.36v.41c0,.9.21,1.71.63,2.42.42.71,1,1.26,1.75,1.65s1.61.59,2.58.59c.8,0,1.53-.14,2.19-.41.66-.27,1.23-.68,1.73-1.23l1.35,1.58c-.61.72-1.38,1.26-2.29,1.64-.91.38-1.93.56-3.05.56Z"/>
        <path class="cls-7" d="M291.08,109.43c-1.38,0-2.61-.3-3.69-.89-1.08-.6-1.93-1.41-2.54-2.45-.61-1.04-.92-2.23-.92-3.58s.31-2.54.92-3.58,1.46-1.85,2.54-2.44c1.08-.59,2.31-.88,3.69-.88,1.23,0,2.32.24,3.29.73.96.49,1.71,1.21,2.24,2.16l-1.87,1.2c-.44-.67-.98-1.15-1.62-1.47-.64-.32-1.33-.47-2.06-.47-.89,0-1.68.2-2.38.59-.7.39-1.25.94-1.66,1.65-.41.71-.61,1.55-.61,2.52s.2,1.81.61,2.53c.41.72.96,1.27,1.66,1.66.7.39,1.49.59,2.38.59.73,0,1.42-.16,2.06-.47.64-.31,1.18-.81,1.62-1.47l1.87,1.18c-.53.94-1.27,1.66-2.24,2.16s-2.06.75-3.29.75Z"/>
        <path class="cls-7" d="M297.9,109.28v-13.55h2.35v3.66l-.38-.97c.44-.89,1.12-1.58,2.04-2.07.92-.49,1.99-.74,3.22-.74,1.11,0,2.08.21,2.93.64.84.43,1.5,1.07,1.98,1.94.48.87.72,1.97.72,3.3v7.8h-2.45v-7.52c0-1.31-.32-2.3-.96-2.97-.64-.66-1.54-1-2.7-1-.87,0-1.63.17-2.28.51-.65.34-1.15.84-1.5,1.51-.35.67-.52,1.49-.52,2.48v6.98h-2.46Z"/>
        <path class="cls-7" d="M319.25,109.43c-1.35,0-2.55-.3-3.62-.89-1.07-.6-1.91-1.42-2.52-2.47s-.92-2.24-.92-3.57.31-2.54.92-3.57,1.45-1.84,2.51-2.44c1.06-.6,2.27-.9,3.63-.9s2.55.29,3.62.88c1.07.59,1.9,1.4,2.51,2.44.6,1.04.91,2.23.91,3.58s-.3,2.54-.91,3.58c-.61,1.04-1.44,1.86-2.51,2.45s-2.27.89-3.62.89ZM319.25,107.28c.87,0,1.65-.2,2.34-.59.69-.39,1.23-.95,1.62-1.67.39-.72.59-1.56.59-2.52s-.2-1.81-.59-2.52c-.39-.71-.93-1.26-1.62-1.65-.69-.39-1.47-.59-2.34-.59s-1.64.2-2.33.59c-.68.39-1.23.94-1.64,1.65-.41.71-.61,1.55-.61,2.52s.2,1.79.61,2.52c.41.72.95,1.28,1.64,1.67.68.39,1.46.59,2.33.59Z"/>
        <path class="cls-7" d="M327.81,109.28v-18.97h2.46v18.97h-2.46Z"/>
        <path class="cls-7" d="M338.88,109.43c-1.35,0-2.55-.3-3.62-.89-1.07-.6-1.91-1.42-2.52-2.47s-.92-2.24-.92-3.57.31-2.54.92-3.57,1.45-1.84,2.51-2.44c1.06-.6,2.27-.9,3.63-.9s2.55.29,3.62.88c1.07.59,1.9,1.4,2.51,2.44.6,1.04.91,2.23.91,3.58s-.3,2.54-.91,3.58c-.61,1.04-1.44,1.86-2.51,2.45s-2.27.89-3.62.89ZM338.88,107.28c.87,0,1.65-.2,2.34-.59.69-.39,1.23-.95,1.62-1.67.39-.72.59-1.56.59-2.52s-.2-1.81-.59-2.52c-.39-.71-.93-1.26-1.62-1.65-.69-.39-1.47-.59-2.34-.59s-1.64.2-2.33.59c-.68.39-1.23.94-1.64,1.65-.41.71-.61,1.55-.61,2.52s.2,1.79.61,2.52c.41.72.95,1.28,1.64,1.67.68.39,1.46.59,2.33.59ZM336.94,93.76l3.48-3.32h3.12l-4.29,3.32h-2.3Z"/>
        <path class="cls-7" d="M353.07,108.72c-1.31,0-2.48-.28-3.52-.83-1.03-.55-1.85-1.32-2.45-2.31-.61-.99-.91-2.13-.91-3.43s.3-2.46.91-3.44c.6-.98,1.42-1.74,2.45-2.29s2.2-.82,3.52-.82c1.16,0,2.21.23,3.17.7.95.47,1.72,1.19,2.29,2.16.57.97.86,2.2.86,3.68s-.29,2.68-.86,3.66c-.57.97-1.33,1.7-2.29,2.19-.96.49-2.01.73-3.17.73ZM353.38,114.39c-1.24,0-2.45-.18-3.62-.52-1.17-.35-2.12-.85-2.85-1.5l1.18-1.89c.63.55,1.41.98,2.33,1.29.92.31,1.88.47,2.89.47,1.6,0,2.78-.38,3.53-1.12.75-.75,1.12-1.89,1.12-3.43v-2.86l.26-2.68-.13-2.71v-3.71h2.33v11.71c0,2.39-.6,4.14-1.79,5.27-1.19,1.12-2.94,1.69-5.24,1.69ZM353.35,106.57c.9,0,1.7-.19,2.4-.56.7-.37,1.25-.89,1.65-1.56.4-.66.6-1.43.6-2.3s-.2-1.64-.6-2.3c-.4-.67-.95-1.18-1.65-1.55-.7-.37-1.5-.55-2.4-.55s-1.71.18-2.42.55c-.71.37-1.26.88-1.66,1.55-.4.66-.6,1.43-.6,2.3s.2,1.64.6,2.3c.4.67.95,1.19,1.66,1.56.71.38,1.51.56,2.42.56Z"/>
        <path class="cls-7" d="M364.45,93.12c-.48,0-.87-.15-1.19-.46-.32-.31-.47-.68-.47-1.12s.16-.84.47-1.15c.31-.31.71-.46,1.19-.46s.87.15,1.19.45c.32.3.47.67.47,1.11s-.15.85-.46,1.16-.71.47-1.2.47ZM363.22,109.28v-13.55h2.46v13.55h-2.46Z"/>
        <path class="cls-7" d="M374.39,109.43c-1.38,0-2.61-.3-3.69-.89-1.08-.6-1.93-1.41-2.54-2.45-.61-1.04-.92-2.23-.92-3.58s.31-2.54.92-3.58,1.46-1.85,2.54-2.44c1.08-.59,2.31-.88,3.69-.88,1.23,0,2.32.24,3.29.73.96.49,1.71,1.21,2.24,2.16l-1.87,1.2c-.44-.67-.98-1.15-1.62-1.47-.64-.32-1.33-.47-2.06-.47-.89,0-1.68.2-2.38.59-.7.39-1.25.94-1.66,1.65-.41.71-.61,1.55-.61,2.52s.2,1.81.61,2.53c.41.72.96,1.27,1.66,1.66.7.39,1.49.59,2.38.59.73,0,1.42-.16,2.06-.47.64-.31,1.18-.81,1.62-1.47l1.87,1.18c-.53.94-1.27,1.66-2.24,2.16s-2.06.75-3.29.75Z"/>
        <path class="cls-7" d="M386.82,109.43c-1.35,0-2.55-.3-3.62-.89-1.07-.6-1.91-1.42-2.52-2.47s-.92-2.24-.92-3.57.31-2.54.92-3.57,1.45-1.84,2.51-2.44c1.06-.6,2.27-.9,3.63-.9s2.55.29,3.62.88c1.07.59,1.9,1.4,2.51,2.44.6,1.04.91,2.23.91,3.58s-.3,2.54-.91,3.58c-.61,1.04-1.44,1.86-2.51,2.45s-2.27.89-3.62.89ZM386.82,107.28c.87,0,1.65-.2,2.34-.59.69-.39,1.23-.95,1.62-1.67.39-.72.59-1.56.59-2.52s-.2-1.81-.59-2.52c-.39-.71-.93-1.26-1.62-1.65-.69-.39-1.47-.59-2.34-.59s-1.64.2-2.33.59c-.68.39-1.23.94-1.64,1.65-.41.71-.61,1.55-.61,2.52s.2,1.79.61,2.52c.41.72.95,1.28,1.64,1.67.68.39,1.46.59,2.33.59Z"/>
      </g>
    </g>
  </g>
</svg>